<svg xmlns="http://www.w3.org/2000/svg" version="1.0" width="1080.000000pt" height="580.000000pt" viewBox="0 0 1080.000000 580.000000" preserveAspectRatio="xMidYMid meet">

<g transform="translate(0.000000,580.000000) scale(0.100000,-0.100000)" fill='' stroke="none">
<path d="M415 5620 c-161 -80 -102 -330 77 -332 77 -1 133 33 168 102 18 33 16 119 -3 155 -44 85 -153 119 -242 75z"/>
<path d="M1828 5620 c-20 -11 -46 -33 -57 -48 -20 -29 -42 -105 -36 -126 2 -6 6 -23 9 -38 8 -34 50 -84 89 -105 48 -25 131 -20 177 11 79 52 103 171 49 251 -47 70 -154 95 -231 55z"/>
<path d="M3255 5626 c-39 -17 -80 -65 -95 -112 -31 -93 31 -201 128 -222 172 -38 288 154 174 290 -46 55 -138 74 -207 44z"/>
<path d="M4655 5617 c-59 -34 -87 -87 -83 -163 6 -104 70 -165 172 -166 102 -1 168 62 174 166 2 50 -2 68 -20 101 -31 53 -89 85 -153 85 -33 0 -63 -8 -90 -23z"/>
<path d="M5975 5626 c-66 -28 -112 -116 -101 -187 14 -89 84 -150 171 -151 159 -2 240 172 137 294 -46 55 -138 74 -207 44z"/>
<path d="M7378 5620 c-107 -57 -117 -228 -17 -303 58 -43 152 -40 213 6 96 74 86 235 -19 294 -51 29 -125 30 -177 3z"/>
<path d="M8805 5624 c-68 -35 -98 -84 -98 -159 0 -107 73 -178 181 -177 180 2 238 253 76 332 -48 24 -118 26 -159 4z"/>
<path d="M10225 5626 c-173 -78 -116 -338 74 -338 156 0 234 183 127 300 -44 49 -137 66 -201 38z"/>
<path d="M421 3952 c-165 -82 -112 -332 71 -334 143 -1 226 137 157 262 -43 79 -148 112 -228 72z"/>
<path d="M1830 3948 c-57 -29 -92 -89 -92 -157 0 -103 74 -174 180 -173 70 1 121 33 152 97 75 155 -86 310 -240 233z"/>
<path d="M3255 3953 c-48 -25 -73 -53 -91 -99 -38 -98 22 -210 124 -232 167 -37 285 149 180 284 -45 57 -151 80 -213 47z"/>
<path d="M4675 3956 c-43 -18 -93 -79 -101 -121 -15 -84 21 -166 88 -201 40 -21 126 -21 165 0 121 62 123 250 3 313 -48 26 -109 29 -155 9z"/>
<path d="M5975 3953 c-48 -25 -73 -53 -91 -99 -43 -113 40 -235 161 -236 154 -2 238 166 143 287 -46 59 -149 82 -213 48z"/>
<path d="M7395 3956 c-38 -17 -80 -62 -94 -99 -27 -71 0 -165 60 -210 34 -24 100 -37 145 -27 147 33 183 234 58 319 -43 30 -125 38 -169 17z"/>
<path d="M8804 3951 c-23 -10 -50 -32 -62 -48 -21 -30 -43 -106 -37 -127 2 -6 6 -23 9 -38 8 -34 50 -84 89 -105 18 -9 54 -15 85 -15 70 1 121 33 152 97 74 152 -81 306 -236 236z"/>
<path d="M10225 3951 c-98 -45 -132 -144 -82 -241 55 -109 210 -125 291 -30 73 87 44 225 -58 271 -52 24 -100 24 -151 0z"/>
<path d="M421 2282 c-145 -72 -129 -282 26 -333 109 -36 227 53 227 171 0 130 -139 219 -253 162z"/>
<path d="M1830 2278 c-85 -43 -119 -159 -71 -245 94 -167 345 -88 329 104 -11 127 -142 199 -258 141z"/>
<path d="M3255 2283 c-48 -25 -73 -53 -91 -99 -44 -114 44 -243 165 -244 51 0 118 37 148 80 62 94 29 216 -71 261 -50 23 -111 24 -151 2z"/>
<path d="M4675 2286 c-16 -8 -42 -26 -57 -42 -74 -80 -63 -198 25 -268 34 -27 47 -31 102 -31 55 0 68 4 102 31 75 60 94 151 50 234 -40 76 -143 111 -222 76z"/>
<path d="M5975 2283 c-72 -38 -112 -109 -102 -184 11 -85 94 -159 177 -159 114 0 206 126 171 233 -34 103 -156 158 -246 110z"/>
<path d="M7395 2286 c-121 -56 -142 -219 -39 -304 66 -55 156 -53 225 5 42 36 59 74 59 134 0 98 -66 169 -163 176 -31 2 -64 -2 -82 -11z"/>
<path d="M8804 2281 c-120 -55 -131 -233 -19 -310 122 -83 285 16 273 166 -11 124 -138 197 -254 144z"/>
<path d="M10224 2281 c-150 -68 -131 -289 29 -332 101 -27 195 34 221 144 8 35 -9 103 -37 141 -24 34 -89 66 -137 66 -19 0 -54 -9 -76 -19z"/>
<path d="M430 614 c-45 -20 -68 -41 -91 -86 -63 -124 44 -274 183 -255 167 22 207 250 58 331 -54 29 -99 32 -150 10z"/>
<path d="M1850 614 c-73 -31 -112 -90 -112 -165 0 -118 116 -206 225 -170 106 35 154 145 108 246 -22 48 -44 69 -94 90 -45 19 -82 19 -127 -1z"/>
<path d="M3253 611 c-61 -28 -98 -88 -98 -161 0 -177 225 -246 322 -99 59 90 26 211 -69 258 -54 26 -100 26 -155 2z"/>
<path d="M4675 611 c-70 -32 -105 -86 -105 -162 0 -80 50 -146 129 -170 105 -31 221 54 221 162 0 56 -13 95 -43 128 -28 30 -94 61 -132 61 -16 0 -48 -9 -70 -19z"/>
<path d="M5972 608 c-96 -46 -128 -168 -69 -257 70 -106 224 -106 294 0 59 90 26 211 -69 258 -55 26 -101 26 -156 -1z"/>
<path d="M7395 611 c-71 -33 -105 -86 -105 -164 0 -54 25 -103 73 -141 34 -27 47 -31 101 -31 53 0 68 4 100 29 55 41 76 82 76 144 0 81 -36 135 -112 167 -49 20 -84 19 -133 -4z"/>
<path d="M8820 617 c-134 -62 -153 -235 -35 -316 146 -100 331 61 256 224 -22 48 -44 69 -94 90 -42 17 -91 18 -127 2z"/>
<path d="M10237 615 c-177 -63 -143 -315 45 -341 163 -22 257 192 135 306 -50 48 -112 60 -180 35z"/>
</g>
</svg>