<svg xmlns="http://www.w3.org/2000/svg" xmlns:xlink="http://www.w3.org/1999/xlink" id="Layer_1" data-name="Layer 1" viewBox="0 0 680.91 513.59"><defs><linearGradient id="linear-gradient" x1="526.91" y1="272.08" x2="138.91" y2="716.09" gradientUnits="userSpaceOnUse"><stop offset="0" stop-color="#010101" stop-opacity="0"/><stop offset="0.95" stop-color="#010101"/></linearGradient><linearGradient id="linear-gradient-2" x1="431.07" y1="404.68" x2="396.23" y2="357.41" xlink:href="#linear-gradient"/><linearGradient id="linear-gradient-3" x1="172.31" y1="443.57" x2="285.74" y2="550.21" gradientUnits="userSpaceOnUse"><stop offset="0" stop-color="#fff" stop-opacity="0"/><stop offset="0.95" stop-color="#fff"/></linearGradient><linearGradient id="linear-gradient-4" x1="350.69" y1="146.82" x2="337.73" y2="176.06" xlink:href="#linear-gradient"/><linearGradient id="linear-gradient-5" x1="289.2" y1="96.21" x2="287.45" y2="125.1" xlink:href="#linear-gradient"/><linearGradient id="linear-gradient-6" x1="411.28" y1="342.2" x2="427.08" y2="342.2" gradientUnits="userSpaceOnUse"><stop offset="0" stop-color="#e5c6d6"/><stop offset="0.42" stop-color="#ead4d0"/><stop offset="1" stop-color="#f0e9cb"/></linearGradient><linearGradient id="linear-gradient-7" x1="399.27" y1="368.15" x2="431.83" y2="368.15" xlink:href="#linear-gradient"/><linearGradient id="linear-gradient-8" x1="434.21" y1="310.79" x2="441.09" y2="310.79" xlink:href="#linear-gradient-6"/><linearGradient id="linear-gradient-9" x1="429.33" y1="350.23" x2="397.25" y2="361.9" xlink:href="#linear-gradient"/><linearGradient id="linear-gradient-10" x1="436.36" y1="341.63" x2="563.5" y2="374.11" xlink:href="#linear-gradient"/><linearGradient id="linear-gradient-11" x1="413.19" y1="346.27" x2="458.39" y2="346.27" xlink:href="#linear-gradient-6"/><linearGradient id="linear-gradient-12" x1="409.14" y1="314.2" x2="363.18" y2="249.12" xlink:href="#linear-gradient"/><linearGradient id="linear-gradient-13" x1="435.4" y1="299.15" x2="420.94" y2="305.52" xlink:href="#linear-gradient-6"/><linearGradient id="linear-gradient-14" x1="413.65" y1="347.92" x2="421.18" y2="347.92" xlink:href="#linear-gradient-6"/></defs><title>Code Python</title><path d="M298,558.86c-40.55.86-81.63,1.56-121.07-8a204.64,204.64,0,0,1-26.6-8.47c-17.57-6.82-34.36-15.78-50.48-25.7-41.73-25.63-71.5-66.87-86.21-113.27C-7.42,337,2.07,263.62,33.14,201.92c26-51.72,66.56-101.07,116.91-130.6C206.77,38.06,281.91,41.3,343.68,58c20.79,5.63,40.84,13.85,61.79,18.9,41.89,10.11,85.7,7.21,128.68,4,15-1.11,30.18-2.22,44.76,1.24,30.28,7.17,55.28,42.39,70.45,67.62A239.82,239.82,0,0,1,683.26,257" transform="translate(-2.35 -45.74)" fill="#ffae9a" opacity="0.24" style="isolation:isolate"/><path d="M682,301c-5.65,46.25-24.48,92.08-53.83,127.11C589.29,474.51,523.57,511.31,468,532.67a358.1,358.1,0,0,1-65.85,18.54c-34.33,6.12-69.33,6.94-104.14,7.65" transform="translate(-2.35 -45.74)" fill="#ffae9a" opacity="0.24" style="isolation:isolate"/>
<g xmlns="http://www.w3.org/2000/svg" opacity="0.24" style="isolation:isolate"><rect x="68.87" y="141.35" width="158.99" height="73.32" rx="11.26" transform="translate(294.37 310.28) rotate(-180)" fill="#ffae9a"/><polygon points="225.5 184.03 225.5 157.4 202.99 157.4 225.5 184.03" fill="#ffae9a"/></g>
<rect xmlns="http://www.w3.org/2000/svg" x="75.22" y="135.24" width="147.34" height="67.94" rx="10.43" transform="translate(295.43 292.69) rotate(-180)" fill="#fff"/>
<polygon xmlns="http://www.w3.org/2000/svg" points="220.2 171.44 220.2 146.76 199.34 146.76 220.2 171.44" fill="#fff"/>
<g xmlns="http://www.w3.org/2000/svg">
		<path d="M0,282.99762 L2.12250746,280.0256 L102.527363,89.5119284 L102.739423,87.4951323 L58.478806,4.35817711 C54.7706269,-2.60604179 44.3313035,-0.845245771 43.1143483,6.95065473 L0,282.99762 Z" fill="#FFC24A"/>
		<g>
			<use fill="#FFA712" fill-rule="evenodd" xmlns:xlink="http://www.w3.org/1999/xlink" xlink:href="#path-1"/>
			<use fill="black" fill-opacity="1" filter="url(#filter-2)" xmlns:xlink="http://www.w3.org/1999/xlink" xlink:href="#path-1"/>
		</g>
		<path d="M135.004975,150.380704 L167.960199,116.629461 L134.995423,53.6993114 C131.866109,47.7425353 123.128817,47.7253411 120.032618,53.6993112 L102.421015,87.2880848 L102.421015,90.1487443 L135.004975,150.380704 Z" fill="#F4BD62"/>
		<g>
			<use fill="#FFA50E" fill-rule="evenodd" xmlns:xlink="http://www.w3.org/1999/xlink" xlink:href="#path-3"/>
			<use fill="black" fill-opacity="1" filter="url(#filter-4)" xmlns:xlink="http://www.w3.org/1999/xlink" xlink:href="#path-3"/>
		</g>
		<polygon fill="#F6820C" points="0 282.99762 0.962097168 282.030396 4.45771144 280.60956 132.935323 152.60956 134.563025 148.178595 102.513123 87.1048584"/>
		<path d="M139.120971,347.551268 L255.395916,282.703666 L222.191698,78.2093373 C221.153051,71.8112478 213.303658,69.2818149 208.724314,73.8694368 L0.000254726368,282.997875 L115.608454,347.545536 C122.914643,351.624979 131.812872,351.62689 139.120971,347.551268" fill="#FDE068"/>
		<path d="M254.354084,282.159837 L221.401937,79.2179369 C220.371175,72.8684188 213.843792,70.2409553 209.299213,74.79375 L1.28945312,282.600785 L115.627825,346.509458 C122.878548,350.557931 131.709226,350.559827 138.961846,346.515146 L254.354084,282.159837 Z" fill="#FCCA3F"/>
		<path d="M139.120907,345.64082 C131.812808,349.716442 122.914579,349.714531 115.60839,345.635089 L0.93134768,282.014551 L0.000191044776,282.997875 L115.60839,347.545536 C122.914579,351.624979 131.812808,351.62689 139.120907,347.551268 L255.395853,282.703666 L255.111196,280.951785 L139.120907,345.64082 Z" fill="#EEAB37"/>
	</g>
 
 <g xmlns="http://www.w3.org/2000/svg" filter="url(#editing-extrude-glow)"><g transform="translate(116.75500974059105, 98.9921875)"><path d="M30.21-33.92L30.21-33.92L30.21-33.92Q25.02-33.92 21.25-35.65L21.25-35.65L19.20-25.28L31.55-25.28L31.55-25.28Q31.55-21.89 29.86-19.74L29.86-19.74L29.86-19.74Q28.16-17.60 25.09-17.60L25.09-17.60L25.09-17.60Q21.76-17.60 18.69-18.82L18.69-18.82L18.69-18.82Q18.05-19.07 17.98-19.14L17.98-19.14L14.34 0L0.38 0L8.51-42.24L37.06-42.24L37.06-42.24Q37.06-38.34 35.23-36.13L35.23-36.13L35.23-36.13Q33.41-33.92 30.21-33.92ZM50.82-3.52L50.82-3.52L50.82-3.52Q48.83 1.28 42.50 1.28L42.50 1.28L42.50 1.28Q39.23 1.28 37.18-0.96L37.18-0.96L37.18-0.96Q35.46-2.94 35.46-4.93L35.46-4.93L35.46-4.93Q35.46-10.11 37.82-20.22L37.82-20.22L40.19-32.64L53.18-33.92L49.28-13.70L49.28-13.70Q48.19-8.96 48.19-7.30L48.19-7.30L48.19-7.30Q48.19-3.65 50.82-3.52ZM41.34-41.54L41.34-41.54L41.34-41.54Q41.34-44.03 43.42-45.38L43.42-45.38L43.42-45.38Q45.50-46.72 48.51-46.72L48.51-46.72L48.51-46.72Q51.52-46.72 53.34-45.38L53.34-45.38L53.34-45.38Q55.17-44.03 55.17-41.54L55.17-41.54L55.17-41.54Q55.17-39.04 53.15-37.76L53.15-37.76L53.15-37.76Q51.14-36.48 48.13-36.48L48.13-36.48L48.13-36.48Q45.12-36.48 43.23-37.76L43.23-37.76L43.23-37.76Q41.34-39.04 41.34-41.54ZM76.29-17.98L76.29-17.98L76.29-17.98Q78.59-22.08 78.59-26.24L78.59-26.24L78.59-26.24Q78.59-28.99 76.61-28.99L76.61-28.99L76.61-28.99Q75.07-28.99 73.47-26.37L73.47-26.37L73.47-26.37Q71.81-23.74 71.30-20.35L71.30-20.35L67.97 0L54.72 1.28L61.25-32.64L71.81-33.92L70.66-27.46L70.66-27.46Q73.79-33.92 80.83-33.92L80.83-33.92L80.83-33.92Q84.54-33.92 86.56-32L86.56-32L86.56-32Q88.58-30.08 88.58-26.14L88.58-26.14L88.58-26.14Q88.58-22.21 85.98-19.71L85.98-19.71L85.98-19.71Q83.39-17.22 78.98-17.22L78.98-17.22L78.98-17.22Q77.06-17.22 76.29-17.98ZM115.52-10.82L115.52-10.82L115.52-10.82Q117.12-9.73 117.12-7.33L117.12-7.33L117.12-7.33Q117.12-4.93 115.90-3.39L115.90-3.39L115.90-3.39Q114.69-1.86 112.70-0.83L112.70-0.83L112.70-0.83Q108.61 1.28 104.19 1.28L104.19 1.28L104.19 1.28Q99.78 1.28 97.18 0.32L97.18 0.32L97.18 0.32Q94.59-0.64 92.86-2.43L92.86-2.43L92.86-2.43Q89.47-5.82 89.47-12.03L89.47-12.03L89.47-12.03Q89.47-21.70 94.72-27.58L94.72-27.58L94.72-27.58Q100.35-33.92 110.14-33.92L110.14-33.92L110.14-33.92Q116.22-33.92 119.23-31.36L119.23-31.36L119.23-31.36Q121.47-29.44 121.47-26.30L121.47-26.30L121.47-26.30Q121.47-15.04 102.02-15.04L102.02-15.04L102.02-15.04Q101.76-13.38 101.76-11.97L101.76-11.97L101.76-11.97Q101.76-9.02 103.07-7.90L103.07-7.90L103.07-7.90Q104.38-6.78 106.82-6.78L106.82-6.78L106.82-6.78Q109.25-6.78 111.84-7.90L111.84-7.90L111.84-7.90Q114.43-9.02 115.52-10.82ZM102.46-17.79L102.46-17.79L102.46-17.79Q107.01-17.79 109.63-20.61L109.63-20.61L109.63-20.61Q112.26-23.30 112.26-27.58L112.26-27.58L112.26-27.58Q112.26-29.06 111.71-29.86L111.71-29.86L111.71-29.86Q111.17-30.66 110.08-30.66L110.08-30.66L110.08-30.66Q108.99-30.66 108.06-30.24L108.06-30.24L108.06-30.24Q107.14-29.82 106.18-28.42L106.18-28.42L106.18-28.42Q103.81-25.22 102.46-17.79ZM122.82-3.07L122.82-3.07L130.75-44.80L143.74-46.08L141.76-36.29L141.76-36.29Q141.06-33.28 140.16-31.17L140.16-31.17L140.16-31.17Q141.57-32.96 144.64-33.66L144.64-33.66L144.64-33.66Q145.54-33.92 146.62-33.92L146.62-33.92L146.62-33.92Q152.58-33.92 155.84-30.30L155.84-30.30L155.84-30.30Q159.10-26.69 159.10-19.71L159.10-19.71L159.10-19.71Q159.10-10.62 153.92-4.93L153.92-4.93L153.92-4.93Q148.35 1.28 138.24 1.28L138.24 1.28L138.24 1.28Q131.26 1.28 126.02-1.02L126.02-1.02L126.02-1.02Q124.16-1.86 122.82-3.07ZM139.07-22.40L135.68-3.65L135.68-3.65Q137.02-2.50 138.69-2.50L138.69-2.50L138.69-2.50Q140.35-2.50 141.31-3.14L141.31-3.14L141.31-3.14Q142.27-3.78 142.98-5.06L142.98-5.06L142.98-5.06Q144.90-8.51 146.43-19.07L146.43-19.07L146.43-19.07Q146.88-22.08 146.88-25.09L146.88-25.09L146.88-25.09Q146.88-28.10 146.21-29.06L146.21-29.06L146.21-29.06Q145.54-30.02 144.26-30.02L144.26-30.02L144.26-30.02Q140.35-30.02 139.07-22.40L139.07-22.40ZM165.73-1.92L165.73-1.92L165.73-1.92Q164.22-3.58 163.55-6.21L163.55-6.21L163.55-6.21Q162.88-8.83 162.88-13.12L162.88-13.12L162.88-13.12Q162.88-17.41 164.35-21.31L164.35-21.31L164.35-21.31Q165.82-25.22 168.51-28.03L168.51-28.03L168.51-28.03Q174.02-33.92 183.10-33.92L183.10-33.92L183.10-33.92Q186.37-33.92 188.74-32.83L188.74-32.83L199.68-33.92L194.94-8.96L194.94-8.96Q194.75-8.19 194.75-6.78L194.75-6.78L194.75-6.78Q194.75-5.38 195.62-4.48L195.62-4.48L195.62-4.48Q196.48-3.58 197.76-3.46L197.76-3.46L197.76-3.46Q197.12-1.28 194.78 0L194.78 0L194.78 0Q192.45 1.28 189.82 1.28L189.82 1.28L189.82 1.28Q187.20 1.28 185.44 0.29L185.44 0.29L185.44 0.29Q183.68-0.70 183.17-2.37L183.17-2.37L183.17-2.37Q182.14-0.77 179.97 0.26L179.97 0.26L179.97 0.26Q177.79 1.28 174.88 1.28L174.88 1.28L174.88 1.28Q171.97 1.28 169.60 0.51L169.60 0.51L169.60 0.51Q167.23-0.26 165.73-1.92ZM179.23-27.90L179.23-27.90L179.23-27.90Q178.50-26.75 177.86-24.80L177.86-24.80L177.86-24.80Q177.22-22.85 176.16-17.63L176.16-17.63L176.16-17.63Q175.10-12.42 175.10-8.70L175.10-8.70L175.10-8.70Q175.10-4.99 175.68-3.90L175.68-3.90L175.68-3.90Q176.26-2.82 177.28-2.82L177.28-2.82L177.28-2.82Q179.33-2.82 180.83-4.77L180.83-4.77L180.83-4.77Q182.34-6.72 182.91-10.18L182.91-10.18L186.30-28.93L186.30-28.93Q184.96-30.08 183.39-30.08L183.39-30.08L183.39-30.08Q181.82-30.08 180.90-29.57L180.90-29.57L180.90-29.57Q179.97-29.06 179.23-27.90ZM222.27-22.46L222.27-22.46L222.27-22.46Q223.17-24.83 223.17-26.88L223.17-26.88L223.17-26.88Q223.17-30.66 220.10-30.66L220.10-30.66L220.10-30.66Q218.50-30.66 217.18-29.22L217.18-29.22L217.18-29.22Q215.87-27.78 215.87-25.98L215.87-25.98L215.87-25.98Q215.87-24.70 216.90-23.68L216.90-23.68L216.90-23.68Q218.37-22.27 222.14-19.97L222.14-19.97L222.14-19.97Q225.92-17.66 227.36-15.78L227.36-15.78L227.36-15.78Q228.80-13.89 228.80-11.30L228.80-11.30L228.80-11.30Q228.80-8.70 227.55-6.34L227.55-6.34L227.55-6.34Q226.30-3.97 224.06-2.30L224.06-2.30L224.06-2.30Q219.26 1.28 211.58 1.28L211.58 1.28L211.58 1.28Q207.42 1.28 204.22-0.90L204.22-0.90L204.22-0.90Q201.02-3.01 201.02-5.50L201.02-5.50L201.02-5.50Q201.02-8 202.85-9.47L202.85-9.47L202.85-9.47Q204.67-10.94 207.36-10.94L207.36-10.94L207.36-10.94Q210.05-10.94 211.71-9.92L211.71-9.92L211.71-9.92Q210.88-7.81 210.88-6.40L210.88-6.40L210.88-6.40Q210.88-2.18 214.46-2.18L214.46-2.18L214.46-2.18Q216-2.18 217.02-3.14L217.02-3.14L217.02-3.14Q218.05-4.10 218.05-5.76L218.05-5.76L218.05-5.76Q218.05-9.02 212.54-12.48L212.54-12.48L212.54-12.48Q208.06-15.42 207.04-16.58L207.04-16.58L207.04-16.58Q205.31-18.62 205.31-21.18L205.31-21.18L205.31-21.18Q205.31-23.74 206.53-26.18L206.53-26.18L206.53-26.18Q207.74-28.61 209.98-30.34L209.98-30.34L209.98-30.34Q214.66-33.92 222.78-33.92L222.78-33.92L222.78-33.92Q226.94-33.92 229.41-32.26L229.41-32.26L229.41-32.26Q231.87-30.59 231.87-27.78L231.87-27.78L231.87-27.78Q231.87-24.96 230.18-23.36L230.18-23.36L230.18-23.36Q228.48-21.76 225.41-21.76L225.41-21.76L225.41-21.76Q223.30-21.76 222.27-22.46ZM260.16-10.82L260.16-10.82L260.16-10.82Q261.76-9.73 261.76-7.33L261.76-7.33L261.76-7.33Q261.76-4.93 260.54-3.39L260.54-3.39L260.54-3.39Q259.33-1.86 257.34-0.83L257.34-0.83L257.34-0.83Q253.25 1.28 248.83 1.28L248.83 1.28L248.83 1.28Q244.42 1.28 241.82 0.32L241.82 0.32L241.82 0.32Q239.23-0.64 237.50-2.43L237.50-2.43L237.50-2.43Q234.11-5.82 234.11-12.03L234.11-12.03L234.11-12.03Q234.11-21.70 239.36-27.58L239.36-27.58L239.36-27.58Q244.99-33.92 254.78-33.92L254.78-33.92L254.78-33.92Q260.86-33.92 263.87-31.36L263.87-31.36L263.87-31.36Q266.11-29.44 266.11-26.30L266.11-26.30L266.11-26.30Q266.11-15.04 246.66-15.04L246.66-15.04L246.66-15.04Q246.40-13.38 246.40-11.97L246.40-11.97L246.40-11.97Q246.40-9.02 247.71-7.90L247.71-7.90L247.71-7.90Q249.02-6.78 251.46-6.78L251.46-6.78L251.46-6.78Q253.89-6.78 256.48-7.90L256.48-7.90L256.48-7.90Q259.07-9.02 260.16-10.82ZM247.10-17.79L247.10-17.79L247.10-17.79Q251.65-17.79 254.27-20.61L254.27-20.61L254.27-20.61Q256.90-23.30 256.90-27.58L256.90-27.58L256.90-27.58Q256.90-29.06 256.35-29.86L256.35-29.86L256.35-29.86Q255.81-30.66 254.72-30.66L254.72-30.66L254.72-30.66Q253.63-30.66 252.70-30.24L252.70-30.24L252.70-30.24Q251.78-29.82 250.82-28.42L250.82-28.42L250.82-28.42Q248.45-25.22 247.10-17.79Z" fill="#eb6c6c"/></g></g>
 <style xmlns="http://www.w3.org/2000/svg">text {
  font-size: 64px;
  font-family: Arial Black;
  dominant-baseline: central;
  text-anchor: middle;
}</style>
</svg>