<svg xmlns="http://www.w3.org/2000/svg" xmlns:xlink="http://www.w3.org/1999/xlink" id="Layer_1" height="512" viewBox="0 0 512 512" width="512" data-name="Layer 1"><linearGradient id="linear-gradient" gradientUnits="userSpaceOnUse" x1="256" x2="256" y1="464" y2="50.909"><stop offset=".322" stop-color="#a163f5"/><stop offset=".466" stop-color="#b074ee"/><stop offset=".752" stop-color="#d8a1dd"/><stop offset=".898" stop-color="#efbad3"/></linearGradient><g fill="url(#linear-gradient)"><path d="m496.371 236.643-34.2-3.249a204.983 204.983 0 0 0 -7.5-36.694l30.09-16.238a5.994 5.994 0 0 0 2.664-7.624l-10.465-24.652a6 6 0 0 0 -7.324-3.381l-32.729 10.281a207.618 207.618 0 0 0 -19.23-28.386l21.858-26.41a6 6 0 0 0 -.385-8.074l-18.975-18.926a6 6 0 0 0 -8.052-.384l-26.5 21.821a208.111 208.111 0 0 0 -31.233-20.727l9.794-32.755a6 6 0 0 0 -3.5-7.281l-24.872-10.053a6 6 0 0 0 -7.567 2.785l-15.815 30.281a206.322 206.322 0 0 0 -33.784-6.55l-3.255-34a6 6 0 0 0 -5.973-5.427h-26.836a6 6 0 0 0 -5.973 5.428l-3.255 34a206.253 206.253 0 0 0 -36.817 7.445l-16.285-30.05a6 6 0 0 0 -7.608-2.669l-24.713 10.432a6 6 0 0 0 -3.389 7.334l10.3 32.618a208.109 208.109 0 0 0 -28.465 19.189l-26.5-21.821a6 6 0 0 0 -8.052.384l-18.975 18.927a6 6 0 0 0 -.385 8.074l21.859 26.409a207.574 207.574 0 0 0 -20.767 31.148l-32.865-9.777a6 6 0 0 0 -7.269 3.493l-10.079 24.809a6 6 0 0 0 2.792 7.582l30.348 15.772a204.983 204.983 0 0 0 -6.559 33.667l-34.3 3.249a6.177 6.177 0 0 0 -5.625 5.973v26.768a6.177 6.177 0 0 0 5.629 5.973l34.2 3.249a204.9 204.9 0 0 0 7.502 36.694l-30.09 16.238a5.992 5.992 0 0 0 -2.663 7.624l10.464 24.652a6 6 0 0 0 7.326 3.381l32.732-10.281a207.625 207.625 0 0 0 19.224 28.386l-21.859 26.41a6 6 0 0 0 .385 8.074l18.975 18.926a6 6 0 0 0 8.052.384l26.5-21.821a208.111 208.111 0 0 0 31.233 20.727l-9.794 32.755a6 6 0 0 0 3.5 7.281l24.872 10.055a6 6 0 0 0 7.567-2.785l15.815-30.281a206.322 206.322 0 0 0 33.784 6.55l3.255 34a6 6 0 0 0 5.973 5.425h26.836a6 6 0 0 0 5.973-5.428l3.255-34a206.253 206.253 0 0 0 36.817-7.445l16.285 30.049a6 6 0 0 0 7.608 2.669l24.713-10.432a6 6 0 0 0 3.389-7.334l-10.3-32.618a208.17 208.17 0 0 0 28.465-19.189l26.5 21.821a6 6 0 0 0 8.052-.384l18.975-18.927a6 6 0 0 0 .385-8.074l-21.859-26.408a207.492 207.492 0 0 0 20.766-31.148l32.866 9.777a5.995 5.995 0 0 0 7.269-3.493l10.079-24.808a6 6 0 0 0 -2.792-7.582l-30.348-15.772a204.981 204.981 0 0 0 6.558-33.667l34.3-3.249a6.177 6.177 0 0 0 5.626-5.974v-26.768a6.177 6.177 0 0 0 -5.629-5.973zm-447.671 29.815-26.7-2.53v-15.856l26.747-2.53c-.174 3.465-.164 6.951-.164 10.458s-.06 6.993.117 10.458zm419.332-108.573 6.2 14.609-23.45 12.644a205.468 205.468 0 0 0 -8.2-19.256zm-52.48-72.257 11.253 11.224-17.036 20.583a209.226 209.226 0 0 0 -14.85-14.815zm-79.191-48.551 14.76 5.966-7.623 25.5a206.577 206.577 0 0 0 -19.446-7.893zm-88.326-14.077h15.93l2.535 26.452q-5.217-.261-10.5-.264t-10.5.264zm-75.735 15.326 12.661 23.374a206.456 206.456 0 0 0 -19.32 8.192l-8.011-25.375zm-87.1 58.526 11.248-11.224 20.633 16.992a209 209 0 0 0 -14.849 14.815zm-48.682 78.975 5.972-14.7 25.58 7.61a205.065 205.065 0 0 0 -7.9 19.381zm7.45 178.288-6.2-14.609 23.45-12.644a205.468 205.468 0 0 0 8.2 19.256zm52.48 72.257-11.248-11.224 17.037-20.583a209 209 0 0 0 14.849 14.815zm79.191 48.551-14.76-5.966 7.623-25.5a206.577 206.577 0 0 0 19.446 7.893zm88.326 14.077h-15.93l-2.535-26.452q5.217.261 10.5.264t10.5-.264zm75.74-15.326-12.666-23.374a206.342 206.342 0 0 0 19.32-8.192l8.011 25.373zm87.1-58.526-11.253 11.224-20.633-16.992a209.226 209.226 0 0 0 14.85-14.815zm-170.805 35.664c-107.7 0-195.318-87.393-195.318-194.812s87.618-194.812 195.318-194.812 195.318 87.393 195.318 194.812-87.618 194.812-195.318 194.812zm219.482-114.639-5.972 14.7-25.58-7.61a204.8 204.8 0 0 0 7.9-19.381zm14.518-72.245-26.747 2.53c.174-3.465.165-6.951.165-10.458s.059-6.993-.115-10.458l26.7 2.53z"/><path d="m256 79.792a176.612 176.612 0 0 0 -121.387 48.162 5.989 5.989 0 0 0 -.1 8.586 6.005 6.005 0 0 0 8.372.1 164.652 164.652 0 0 1 113.115-44.848c90.921 0 164.891 73.664 164.891 164.208s-73.97 164.208-164.891 164.208-164.891-73.664-164.891-164.208a162.736 162.736 0 0 1 25.755-88.032 5.995 5.995 0 1 0 -10.117-6.434 174.647 174.647 0 0 0 -27.638 94.466c0 97.162 79.353 176.208 176.891 176.208s176.891-79.046 176.891-176.208-79.353-176.208-176.891-176.208z"/><path d="m256 395.443c77.185 0 139.979-62.554 139.979-139.443s-62.794-139.443-139.979-139.443-139.979 62.554-139.979 139.443 62.794 139.443 139.979 139.443zm-126.595-120.725 95.569 11.513c.2.2.4.406.6.605l11.52 95.215c-55.494-8.219-99.482-52.051-107.689-107.333zm95.174-18.718a31.421 31.421 0 1 1 31.421 31.272 31.382 31.382 0 0 1 -31.421-31.272zm38.053 127.274q-3.294.168-6.632.169-3.354 0-6.667-.172l-10.6-87.575a43.459 43.459 0 0 0 34.5.013zm12.234-1.218 11.526-95.19q.3-.3.605-.6l95.593-11.508c-8.223 55.275-52.217 99.095-107.724 107.298zm109.113-126.056q0 3.279-.167 6.52l-87.936 10.586a43.026 43.026 0 0 0 -.084-34.4l88.011 10.6q.173 3.328.176 6.694zm-1.414-18.925-95.759-11.536c-.117-.117-.237-.232-.355-.349l-11.523-95.237c55.42 8.217 99.353 51.947 107.637 107.122zm-133.222-108.347q3.308-.169 6.657-.171 3.368 0 6.691.173l10.6 87.586a43.45 43.45 0 0 0 -34.549-.013zm-12.235 1.22-11.527 95.212c-.119.117-.24.231-.358.349l-95.784 11.53c8.3-55.173 52.244-98.889 107.669-107.091zm-20.887 108.731a43.032 43.032 0 0 0 -.111 34.4l-87.924-10.592q-.164-3.222-.165-6.484 0-3.384.179-6.725z"/></g></svg>