<svg xmlns:dc="http://purl.org/dc/elements/1.1/" xmlns:cc="http://creativecommons.org/ns#" xmlns:rdf="http://www.w3.org/1999/02/22-rdf-syntax-ns#" xmlns:svg="http://www.w3.org/2000/svg" xmlns="http://www.w3.org/2000/svg" id="svg40" preserveAspectRatio="xMidYMid meet" viewBox="0 0 1080.000000 596.000000" height="596.000000pt" width="1080.000000pt" version="1.0">
  <defs id="defs44"/>
  <metadata id="metadata2">
Created by potrace 1.16, written by Peter Selinger 2001-2019
<rdf:RDF>
  <cc:Work rdf:about="">
    <dc:format>image/svg+xml</dc:format>
    <dc:type rdf:resource="http://purl.org/dc/dcmitype/StillImage"/>
  </cc:Work>
</rdf:RDF>
</metadata>
  <g id="g38" stroke="none" fill="" transform="translate(0.000000,596.000000) scale(0.100000,-0.100000)">
    <path id="path4" d="M2077 5761 c-63 -15 -69 -19 -91 -58 -40 -70 -85 -132 -187 -254 -92 -110 -130 -146 -219 -202 -33 -22 -35 -26 -40 -92 l-5 -70 -60 -3 c-45 -2 -66 -9 -84 -25 -40 -37 -172 -198 -203 -248 -16 -27 -38 -51 -48 -54 -33 -10 -68 -63 -76 -110 -5 -39 -10 -45 -30 -45 -14 0 -43 -18 -73 -47 -43 -42 -50 -54 -53 -93 l-3 -45 -58 -3 c-68 -4 -74 0 -157 97 -66 77 -168 163 -312 261 -47 33 -88 60 -90 60 -2 0 -3 -28 -3 -62 l0 -63 -68 0 c-46 0 -67 -4 -67 -12 0 -29 96 -125 212 -213 153 -115 182 -142 216 -200 35 -62 51 -79 94 -101 l37 -19 3 68 3 67 61 3 c65 3 73 -1 110 -64 9 -16 13 -15 43 12 20 18 39 50 51 84 14 44 25 59 51 72 53 27 96 73 129 137 16 33 49 76 74 97 24 22 84 83 132 138 48 54 111 117 141 140 34 25 64 59 79 88 28 56 61 80 117 88 39 5 42 8 63 60 14 35 29 56 40 59 33 6 134 106 134 133 0 4 -10 8 -22 10 -20 3 -23 10 -26 61 -2 41 2 66 13 83 14 22 22 25 73 22 57 -3 57 -3 62 -38 l6 -35 14 38 14 37 64 0 c58 0 65 -3 88 -29 14 -17 33 -33 43 -36 11 -3 28 -29 40 -58 16 -39 57 -90 167 -207 81 -85 156 -160 168 -167 11 -7 49 -12 83 -13 69 0 83 -12 83 -71 0 -26 2 -29 14 -20 9 7 40 11 78 9 l63 -3 3 -52 c3 -58 -10 -93 -36 -93 -9 0 12 -16 48 -36 36 -19 110 -73 165 -119 81 -68 106 -85 133 -85 22 0 40 -8 55 -24 19 -21 144 -66 184 -66 6 0 63 34 127 76 94 62 116 81 116 100 0 22 4 24 54 24 35 0 58 5 66 15 9 10 32 15 74 15 45 0 69 5 91 21 61 41 262 137 334 158 115 35 249 105 253 133 3 20 10 23 56 26 28 2 52 8 52 13 0 15 80 49 115 49 32 0 121 47 145 75 11 13 11 21 -3 51 -10 19 -17 52 -17 73 l0 39 -105 -63 c-58 -35 -158 -85 -221 -112 -90 -37 -119 -54 -130 -75 -19 -36 -41 -47 -116 -55 -70 -7 -108 -34 -108 -77 0 -49 -8 -56 -69 -56 -31 0 -61 4 -67 9 -5 6 -30 -3 -64 -24 -34 -21 -83 -40 -129 -49 -81 -17 -131 -48 -163 -102 -15 -26 -27 -34 -49 -34 -23 0 -30 -5 -35 -27 -3 -16 -7 -34 -10 -40 -6 -22 -111 -16 -141 7 -14 11 -40 20 -58 20 -21 0 -46 11 -71 31 -22 17 -60 42 -86 55 -26 13 -65 41 -86 61 -21 21 -74 58 -118 83 -49 27 -102 68 -139 107 -53 55 -66 63 -97 63 -33 0 -40 6 -82 64 -25 36 -61 75 -79 87 -17 12 -70 61 -117 108 -47 47 -101 95 -120 106 -24 14 -44 38 -65 81 -37 75 -84 137 -85 112 0 -16 -10 -18 -74 -18 -96 0 -108 11 -104 89 3 53 4 56 33 61 l29 5 -28 23 c-33 25 -55 26 -149 3z"/>
    <path id="path6" d="M5313 5558 c-17 -8 -23 -20 -23 -45 0 -32 -1 -33 -40 -33 -33 0 -54 -11 -125 -62 l-85 -63 68 -10 c37 -6 75 -15 85 -19 12 -6 42 2 92 23 88 37 131 39 235 10 68 -18 81 -26 114 -65 26 -31 45 -44 63 -44 26 0 68 -38 145 -132 33 -41 44 -47 89 -53 28 -4 57 -15 65 -24 81 -96 98 -111 133 -116 71 -12 81 -16 113 -44 18 -16 74 -52 123 -81 50 -29 142 -90 205 -135 112 -81 285 -195 294 -195 3 0 6 17 8 38 3 34 6 38 38 43 19 4 29 7 22 8 -8 0 -53 41 -102 90 -49 49 -108 102 -132 119 -229 157 -599 342 -686 342 l-48 0 -29 63 c-22 45 -45 74 -83 105 -49 39 -57 42 -112 42 l-60 0 0 53 c0 47 -3 56 -30 75 -16 12 -37 36 -45 52 -13 25 -22 30 -52 30 -20 0 -41 6 -47 14 -14 18 -162 28 -193 14z"/>
    <path id="path8" d="M10013 5447 c-41 -29 -42 -32 -28 -53 9 -14 15 -46 15 -78 0 -53 -1 -55 -32 -61 -41 -9 -68 -32 -68 -58 0 -10 -17 -38 -38 -62 -45 -51 -70 -115 -44 -115 8 0 23 -7 32 -15 16 -14 20 -12 52 23 32 36 98 173 98 205 0 8 9 22 20 32 16 14 20 31 20 79 0 51 4 64 26 87 25 26 26 50 1 48 -7 0 -31 -15 -54 -32z"/>
    <path id="path10" d="M8300 5446 c-19 -7 -59 -29 -87 -50 -45 -32 -53 -43 -53 -70 0 -29 -4 -34 -38 -44 -31 -9 -50 -28 -97 -89 -31 -43 -71 -101 -87 -130 -19 -34 -39 -55 -58 -61 -22 -8 -32 -21 -41 -51 -12 -41 -13 -41 -60 -41 -38 0 -49 -4 -54 -18 -3 -11 -25 -40 -48 -65 -33 -37 -50 -47 -74 -47 -37 0 -48 -21 -19 -35 15 -7 22 -23 26 -54 l5 -43 85 89 c66 70 96 94 135 108 28 10 65 32 83 49 29 27 32 35 32 87 l0 57 53 18 c84 27 123 51 145 88 11 19 49 55 83 80 63 46 63 46 146 46 l82 0 68 -60 c37 -33 71 -60 75 -60 4 0 8 22 8 48 0 46 2 49 36 66 36 17 36 17 18 38 -29 31 -116 78 -147 78 -15 0 -62 18 -105 39 -72 36 -80 38 -112 27z"/>
    <path id="path12" d="M8850 5147 c0 -50 -2 -54 -31 -68 l-31 -15 98 -37 c55 -20 114 -37 132 -37 33 0 102 -30 134 -57 14 -13 17 -12 23 6 5 18 14 21 65 21 63 0 80 -13 80 -59 0 -19 6 -21 55 -21 54 0 54 0 61 -35 3 -19 12 -39 19 -45 25 -21 127 -40 213 -40 l88 0 32 53 c18 29 32 56 32 60 0 4 -18 7 -39 7 -22 0 -43 5 -46 10 -3 6 -31 10 -61 10 -51 0 -54 -1 -54 -26 0 -53 -15 -64 -85 -64 -75 0 -85 10 -85 84 l0 46 -50 0 c-46 0 -50 2 -56 28 -10 41 -33 62 -69 62 -18 0 -53 14 -85 35 -32 20 -68 35 -87 35 -17 0 -74 22 -129 50 -54 28 -104 50 -111 50 -9 0 -13 -16 -13 -53z"/>
    <path id="path14" d="M7380 4509 c-83 -56 -117 -69 -175 -69 -60 0 -104 17 -147 58 l-28 26 0 -52 c0 -45 -3 -54 -22 -61 -21 -8 -21 -9 11 -16 27 -6 37 -4 46 9 17 23 120 23 129 0 10 -27 106 -14 151 20 33 26 91 103 83 112 -2 2 -24 -10 -48 -27z"/>
    <path id="path16" d="M2261 3714 c-17 -47 -37 -64 -76 -64 -36 0 -56 -21 -110 -114 -21 -36 -39 -53 -73 -67 -25 -11 -97 -52 -159 -91 l-114 -71 48 -26 c41 -22 48 -31 51 -59 3 -29 6 -33 30 -30 21 2 28 9 30 31 4 30 28 46 100 67 42 13 42 14 42 60 0 63 20 80 92 80 37 0 60 5 68 15 9 10 32 15 76 15 72 0 77 -5 108 -110 17 -58 58 -110 87 -110 40 0 49 -11 49 -60 0 -29 6 -52 14 -59 8 -7 29 -47 47 -89 17 -42 48 -95 69 -118 21 -23 41 -56 45 -75 4 -19 16 -53 27 -76 17 -38 24 -43 53 -43 27 0 34 4 37 23 3 19 10 22 59 25 50 3 61 -1 108 -33 l53 -35 62 21 c36 13 75 36 94 55 18 19 51 38 75 45 131 35 238 76 289 110 31 22 63 39 71 39 19 0 44 30 58 67 11 32 21 38 120 67 79 23 112 61 119 134 l5 57 60 3 c40 2 71 -2 96 -14 35 -15 40 -15 91 1 79 26 164 71 207 110 29 26 47 35 75 35 20 0 57 11 83 24 110 56 143 66 211 66 61 0 74 -4 142 -42 52 -30 83 -56 103 -85 23 -35 34 -43 58 -43 34 0 79 -39 79 -68 0 -21 331 -351 385 -384 17 -10 40 -18 52 -18 38 0 91 -32 103 -61 14 -32 112 -129 132 -129 7 0 30 -5 50 -10 33 -10 37 -14 40 -47 3 -37 4 -38 108 -85 79 -35 117 -47 156 -47 61 -1 81 13 86 62 l4 37 -39 0 c-42 0 -67 11 -110 46 -15 13 -54 31 -86 40 -54 15 -60 19 -65 49 -4 22 -20 44 -44 64 -20 17 -55 49 -77 70 -22 21 -54 45 -71 54 -17 9 -47 36 -68 62 -41 50 -81 75 -120 75 -32 0 -56 25 -56 59 0 30 -21 53 -88 96 -23 16 -66 60 -94 99 -87 120 -234 291 -290 338 -96 81 -116 92 -144 79 -36 -16 -110 -14 -146 5 -57 30 -148 3 -248 -73 -25 -19 -47 -44 -50 -56 -5 -20 -13 -22 -75 -24 -39 -2 -85 -5 -102 -8 -31 -6 -33 -9 -33 -45 0 -37 -2 -39 -35 -46 -19 -3 -52 -4 -74 -2 -34 3 -41 0 -50 -19 -8 -18 -19 -23 -49 -23 -32 0 -45 -7 -76 -40 -20 -22 -46 -40 -57 -40 -32 0 -59 -18 -129 -84 -36 -34 -83 -70 -105 -79 l-40 -18 0 -82 0 -82 -68 -3 c-66 -3 -68 -2 -85 27 -9 17 -21 31 -27 31 -23 0 -75 -41 -80 -63 -5 -17 -23 -32 -57 -48 -29 -13 -67 -36 -86 -51 -25 -20 -46 -28 -75 -28 -30 0 -46 -6 -63 -25 -20 -22 -31 -25 -92 -25 -40 0 -75 5 -84 13 -25 20 -78 103 -109 172 -17 38 -41 72 -59 85 -25 18 -30 28 -30 62 0 32 -8 52 -37 89 -32 43 -42 49 -74 49 -52 0 -69 23 -69 96 0 33 4 64 10 70 7 7 -7 41 -40 104 -70 131 -88 148 -180 169 -36 8 -37 7 -49 -25z"/>
    <path id="path18" d="M8228 3697 l-77 -21 -3 -65 -3 -66 -68 -3 c-50 -2 -69 1 -73 11 -9 25 -111 9 -179 -29 -33 -18 -82 -38 -109 -44 -27 -6 -74 -26 -105 -45 -49 -29 -237 -113 -385 -171 -48 -19 -58 -29 -70 -66 -4 -14 -17 -18 -60 -18 -30 0 -58 -5 -61 -10 -4 -6 -22 -17 -41 -25 -45 -19 -151 -120 -175 -167 -16 -31 -25 -38 -50 -38 l-30 0 27 -23 27 -24 41 22 c23 13 66 31 96 40 30 10 71 32 90 50 19 18 51 36 70 40 19 4 76 29 125 55 50 27 164 74 255 105 91 31 219 78 285 105 78 31 140 50 177 52 47 4 64 11 100 40 52 42 100 68 127 68 12 0 38 16 60 35 35 32 44 35 98 35 58 0 63 -2 144 -63 133 -100 198 -142 382 -244 94 -53 184 -104 198 -114 15 -10 48 -28 74 -39 l48 -20 14 20 c8 11 21 20 30 20 31 0 -10 31 -251 192 -133 89 -260 176 -283 195 l-42 34 -3 -28 c-3 -27 -5 -28 -63 -28 l-60 0 -5 53 c-4 46 -9 55 -37 72 -27 16 -33 26 -33 53 0 28 -6 37 -39 55 -47 26 -63 26 -163 -1z"/>
    <path id="path20" d="M9921 3146 c-18 -25 -36 -46 -40 -46 -4 0 -39 -20 -77 -45 -124 -81 -279 -109 -352 -65 -44 27 -145 29 -140 3 3 -15 16 -18 81 -21 42 -2 77 -7 77 -11 0 -5 19 -30 42 -56 39 -44 44 -47 80 -42 42 6 132 61 321 197 100 72 114 85 92 88 -13 2 -31 12 -39 23 -13 20 -15 19 -45 -25z"/>
    <path id="path22" d="M1275 3011 c-31 -13 -53 -43 -57 -76 -3 -26 -7 -30 -38 -33 -21 -2 -46 -14 -62 -30 -24 -22 -28 -34 -28 -79 l0 -53 -79 0 -80 0 -58 -49 c-32 -27 -75 -67 -96 -89 -37 -38 -38 -41 -28 -78 6 -22 11 -57 11 -78 l0 -39 46 46 c25 26 92 82 147 125 105 81 170 145 189 186 12 29 47 46 92 46 33 0 107 41 138 76 10 11 24 36 33 57 l15 37 -30 0 c-17 0 -39 9 -50 20 -21 21 -34 23 -65 11z"/>
    <path id="path24" d="M227 2402 c-9 -9 -20 -29 -26 -43 -8 -23 -6 -30 19 -54 28 -27 104 -63 189 -91 36 -11 55 -12 102 -2 49 10 67 21 126 74 l68 63 -39 1 c-22 0 -47 7 -56 15 -16 14 -19 12 -41 -20 -23 -33 -27 -35 -81 -35 -50 0 -67 6 -135 46 -115 68 -109 65 -126 46z"/>
    <path id="path26" d="M2158 1821 l-68 -16 -49 -80 c-27 -44 -98 -138 -158 -210 -101 -121 -143 -161 -225 -210 -32 -20 -33 -23 -36 -93 l-3 -72 -63 0 -63 0 -49 -52 c-63 -67 -155 -183 -180 -226 -10 -18 -36 -44 -57 -58 -40 -26 -67 -74 -67 -119 0 -22 -4 -25 -35 -25 -22 0 -35 -5 -35 -13 0 -8 -18 -28 -40 -46 -34 -27 -40 -38 -40 -71 0 -65 -5 -70 -70 -70 l-58 0 -62 73 c-35 39 -81 89 -104 111 -47 44 -269 212 -306 231 l-25 13 0 -62 0 -61 -68 0 c-42 0 -67 -4 -67 -11 0 -15 51 -83 89 -119 18 -16 89 -73 159 -125 107 -80 135 -107 177 -169 44 -65 92 -111 118 -111 4 0 7 18 7 39 0 22 4 51 10 65 9 24 14 26 69 26 52 0 62 -3 80 -26 12 -15 21 -33 21 -40 0 -8 6 -14 13 -14 24 0 69 58 87 112 16 46 24 56 65 78 54 30 77 56 110 125 14 28 52 76 87 110 35 33 100 102 146 153 46 50 104 106 128 123 29 19 53 47 67 76 27 57 63 85 119 92 40 6 43 8 63 61 14 36 27 56 40 59 36 6 135 104 135 133 0 4 -10 8 -22 10 -20 3 -23 10 -26 61 -2 41 2 66 13 83 14 22 22 25 73 22 57 -3 57 -3 62 -38 l6 -35 14 38 14 37 61 0 c59 0 63 -2 112 -47 28 -27 59 -68 70 -93 19 -43 289 -340 329 -363 10 -6 45 -9 77 -8 41 1 63 -2 68 -11 5 -7 9 -44 10 -83 1 -38 4 -56 6 -38 6 45 22 54 95 51 l63 -3 3 -44 c4 -61 -5 -90 -31 -100 -20 -7 -15 -12 39 -39 34 -17 108 -70 165 -117 79 -64 111 -85 133 -85 18 0 40 -10 55 -24 15 -13 63 -35 108 -49 l81 -25 121 81 c98 64 121 84 121 103 0 22 4 24 54 24 35 0 58 5 66 15 9 10 31 15 72 15 51 0 69 5 117 34 98 59 213 113 306 142 127 40 248 104 255 135 5 21 12 24 58 27 29 2 52 7 52 12 0 15 56 40 91 40 34 0 138 51 166 82 17 19 17 21 0 50 -9 16 -17 49 -17 73 l0 44 -78 -48 c-94 -58 -214 -119 -300 -152 -47 -18 -68 -32 -82 -56 -20 -34 -66 -53 -133 -53 -45 0 -87 -36 -87 -74 0 -49 -8 -56 -69 -56 -31 0 -61 4 -67 9 -5 6 -30 -3 -64 -24 -34 -21 -83 -40 -129 -49 -83 -17 -128 -46 -167 -107 -19 -31 -30 -39 -54 -39 -23 0 -30 -5 -30 -19 0 -43 -10 -51 -68 -51 -36 0 -61 5 -72 15 -10 9 -40 19 -68 24 -35 5 -62 18 -87 39 -19 18 -55 41 -78 53 -23 12 -60 37 -82 56 -22 19 -81 60 -130 92 -53 34 -108 79 -134 109 -38 46 -47 52 -81 52 -33 0 -43 5 -67 38 -49 65 -298 308 -332 322 -25 10 -40 29 -71 89 -43 86 -74 122 -83 96 -12 -29 -148 -15 -169 18 -4 7 -8 38 -8 70 l0 57 33 0 32 1 -28 24 c-32 29 -54 30 -149 6z"/>
    <path id="path28" d="M5388 1614 c-21 -11 -28 -22 -28 -44 0 -28 -3 -30 -35 -30 -26 0 -54 -14 -120 -62 -81 -60 -84 -63 -57 -69 15 -4 44 -7 64 -8 20 0 43 -8 51 -16 13 -12 25 -10 97 20 96 41 133 43 242 13 72 -20 82 -25 104 -60 25 -39 29 -42 74 -52 27 -6 71 -45 137 -124 33 -38 51 -51 80 -56 58 -10 92 -26 98 -46 3 -10 26 -37 50 -59 36 -34 52 -41 84 -41 30 0 50 -8 83 -34 24 -19 83 -58 131 -87 49 -28 139 -88 200 -132 115 -83 269 -184 292 -194 10 -3 15 7 17 34 3 35 6 39 38 44 19 4 29 7 22 8 -8 0 -57 43 -110 94 -54 51 -117 107 -142 124 -231 157 -563 322 -665 332 -59 6 -60 7 -73 45 -16 48 -41 81 -100 128 -42 34 -53 38 -104 38 l-58 0 0 53 c0 47 -3 55 -25 65 -13 6 -33 29 -45 52 -18 36 -24 40 -57 40 -20 0 -41 6 -47 14 -17 21 -164 29 -198 10z"/>
    <path id="path30" d="M10098 1509 l-47 -31 15 -29 c9 -19 14 -50 12 -82 -3 -50 -4 -52 -33 -55 -37 -4 -65 -28 -65 -57 0 -12 -14 -34 -31 -51 -30 -27 -47 -59 -63 -111 -6 -20 -4 -23 17 -23 14 0 27 -6 30 -12 14 -41 137 153 137 216 0 12 11 33 25 46 21 20 25 32 25 84 0 51 4 64 26 87 14 15 23 32 20 38 -10 16 -16 14 -68 -20z"/>
    <path id="path32" d="M8355 1498 c-11 -6 -44 -29 -72 -50 -43 -31 -53 -44 -53 -68 0 -23 -5 -31 -25 -36 -32 -8 -94 -77 -155 -171 -27 -43 -56 -85 -65 -93 -9 -8 -29 -27 -45 -42 -19 -16 -30 -36 -30 -52 0 -25 -3 -26 -50 -26 -34 0 -52 -5 -56 -14 -3 -7 -25 -34 -48 -60 -33 -35 -51 -46 -74 -46 -34 0 -51 -25 -21 -33 16 -4 19 -14 19 -59 l1 -53 82 86 c82 87 137 129 169 129 10 0 33 14 53 31 33 29 35 35 35 93 l0 62 58 18 c86 27 130 53 147 85 8 17 45 53 82 80 l67 51 82 0 82 0 53 -51 c29 -28 61 -55 71 -60 16 -9 18 -5 18 36 0 43 2 47 34 60 49 21 51 29 14 61 -42 35 -105 64 -142 64 -16 0 -57 16 -92 35 -64 36 -104 43 -139 23z"/>
    <path id="path34" d="M8930 1207 c0 -50 -2 -54 -32 -69 l-32 -15 84 -32 c47 -18 112 -37 144 -41 36 -6 78 -20 107 -39 45 -28 48 -29 54 -10 5 16 16 19 59 19 58 0 86 -19 86 -58 0 -20 5 -22 55 -22 l55 0 6 -40 c4 -22 10 -43 15 -46 28 -17 133 -34 212 -34 l93 0 32 53 c18 29 32 56 32 60 0 4 -20 7 -45 7 -25 0 -45 5 -45 10 0 6 -25 10 -55 10 -53 0 -55 -1 -55 -28 0 -15 -7 -38 -16 -50 -13 -19 -24 -22 -78 -22 -73 0 -76 3 -76 86 l0 54 -55 0 c-51 0 -55 2 -55 23 0 40 -27 67 -68 67 -25 0 -55 12 -92 35 -33 22 -67 35 -87 35 -19 0 -70 20 -127 50 -52 28 -100 50 -106 50 -6 0 -10 -23 -10 -53z"/>
    <path id="path36" d="M7426 548 c-71 -43 -85 -48 -138 -48 -68 0 -113 16 -147 54 -14 14 -28 26 -33 26 -4 0 -8 -22 -8 -50 0 -34 -5 -52 -15 -58 -13 -6 -8 -11 19 -19 31 -10 36 -9 41 8 5 16 16 19 59 19 35 0 58 -5 66 -15 8 -9 30 -15 60 -15 36 0 56 7 88 30 36 26 100 107 90 114 -2 2 -39 -19 -82 -46z"/>
  </g>
</svg>